<?xml version="1.0" standalone="no"?>
<!DOCTYPE svg PUBLIC "-//W3C//DTD SVG 20010904//EN"
 "http://www.w3.org/TR/2001/REC-SVG-20010904/DTD/svg10.dtd">
<svg version="1.0" xmlns="http://www.w3.org/2000/svg"
 width="16.000000pt" height="16.000000pt" viewBox="0 0 16.000000 16.000000"
 preserveAspectRatio="xMidYMid meet">
<metadata>
Created by potrace 1.11, written by Peter Selinger 2001-2013
</metadata>
<g transform="translate(0.000000,16.000000) scale(0.003200,-0.003200)"
fill="#000000" stroke="none">
<path d="M3661 4985 c-186 -41 -319 -113 -456 -249 -188 -186 -305 -429 -381
-786 -17 -82 -36 -211 -32 -215 6 -6 387 -105 404 -105 12 0 18 25 30 115 59
473 307 772 631 759 256 -11 469 -240 523 -564 19 -111 17 -314 -4 -415 -36
-173 -101 -300 -211 -411 -130 -131 -282 -191 -472 -186 -35 0 -64 -2 -64 -6
-4 -21 -16 -144 -24 -242 -3 -30 -7 -75 -10 -100 -19 -170 -19 -173 7 -166
153 45 207 55 293 51 114 -4 133 -8 220 -51 160 -76 300 -250 369 -456 78
-232 86 -566 20 -822 -74 -286 -274 -533 -493 -609 -70 -25 -208 -33 -284 -17
-200 41 -360 216 -454 495 -27 81 -58 192 -69 250 -2 11 -6 31 -9 45 -2 14 -7
41 -10 60 -3 19 -8 49 -11 66 l-6 31 -76 -14 c-43 -7 -138 -25 -212 -39 l-136
-26 7 -71 c6 -66 10 -92 25 -182 24 -149 80 -335 138 -460 170 -364 462 -608
781 -654 66 -9 276 -8 320 2 103 24 163 45 242 82 233 113 440 332 571 606 35
72 113 279 111 294 -1 3 6 38 15 78 33 156 41 254 40 492 -1 288 -45 500 -149
720 -100 213 -248 362 -427 430 -27 10 -48 21 -48 25 0 3 19 20 43 37 48 35
144 131 182 183 111 149 198 369 222 563 10 77 10 363 1 437 -37 292 -155 549
-341 747 -140 147 -271 226 -447 269 -88 22 -287 26 -369 9z"/>
<path d="M2123 4062 c-145 -88 -640 -386 -718 -432 -23 -14 -127 -76 -231
-138 -304 -183 -574 -345 -884 -531 l-290 -173 0 -282 0 -281 116 -70 c64 -38
129 -77 145 -86 16 -9 34 -21 41 -27 7 -5 29 -19 48 -30 19 -10 193 -115 385
-232 193 -117 362 -220 377 -229 66 -39 309 -187 368 -223 36 -23 81 -50 101
-62 20 -12 102 -61 183 -111 81 -49 159 -97 174 -106 15 -9 98 -59 184 -112
l157 -95 3 111 c2 62 1 197 -2 301 l-5 189 -330 194 c-181 107 -346 203 -365
214 -19 11 -48 28 -65 38 -32 19 -629 372 -680 401 -16 10 -88 52 -159 94 -70
42 -131 76 -135 76 -3 1 -19 11 -35 24 l-29 24 39 21 c21 12 46 25 54 31 20
13 126 75 360 210 320 186 421 245 510 297 47 28 180 105 295 173 116 67 226
132 246 144 20 11 95 55 168 96 l131 75 0 298 c0 163 -3 297 -7 296 -5 0 -72
-40 -150 -87z"/>
</g>
</svg>
